<svg xmlns="http://www.w3.org/2000/svg" viewBox="0 0 35.649 42.84">
  <defs>
    <style>
      .cls-1 {
        fill: #ec5058;
      }
    </style>
  </defs>
  <g id="i-assortiment" transform="translate(-15.75 -6.569)">
    <path id="Path_14" data-name="Path 14" class="cls-1" d="M89.034,25a.472.472,0,0,1-.329-.81l.338-.329a.472.472,0,1,1,.658.677l-.338.329A.471.471,0,0,1,89.034,25Z" transform="translate(-38.446 -9.058)"/>
    <path id="Path_15" data-name="Path 15" class="cls-1" d="M19.822,58.664a.472.472,0,0,1-.329-.81l.681-.663a.472.472,0,0,1,.658.677l-.681.663A.474.474,0,0,1,19.822,58.664Zm2.041-1.988a.472.472,0,0,1-.329-.81l.681-.663a.472.472,0,0,1,.658.677l-.681.663A.473.473,0,0,1,21.864,56.676Zm2.042-1.988a.472.472,0,0,1-.329-.81l.681-.663a.472.472,0,0,1,.658.677l-.681.663A.472.472,0,0,1,23.905,54.687ZM25.947,52.7a.472.472,0,0,1-.329-.81l.681-.663a.472.472,0,0,1,.658.677l-.681.663A.47.47,0,0,1,25.947,52.7Zm2.042-1.988a.472.472,0,0,1-.329-.81l.681-.663a.472.472,0,0,1,.658.677l-.681.663A.474.474,0,0,1,27.989,50.711Zm2.042-1.988a.472.472,0,0,1-.329-.81l.681-.663a.472.472,0,0,1,.658.677l-.681.663A.474.474,0,0,1,30.031,48.722Zm2.041-1.988a.472.472,0,0,1-.329-.81l.681-.663a.472.472,0,0,1,.658.677L32.4,46.6A.473.473,0,0,1,32.072,46.734Zm2.042-1.988a.472.472,0,0,1-.329-.81l.681-.663a.472.472,0,1,1,.658.677l-.681.663A.473.473,0,0,1,34.114,44.745Zm2.042-1.988a.472.472,0,0,1-.329-.81l.68-.663a.472.472,0,1,1,.659.676l-.68.663A.471.471,0,0,1,36.156,42.757ZM38.2,40.768a.472.472,0,0,1-.329-.81l.681-.663a.472.472,0,1,1,.658.677l-.681.663A.471.471,0,0,1,38.2,40.768Zm2.042-1.988a.472.472,0,0,1-.329-.81l.68-.663a.472.472,0,0,1,.659.676l-.68.663A.469.469,0,0,1,40.239,38.78Zm2.042-1.988a.472.472,0,0,1-.329-.81l.681-.663A.472.472,0,1,1,43.29,36l-.681.663A.469.469,0,0,1,42.281,36.791ZM44.322,34.8a.472.472,0,0,1-.329-.81l.68-.663a.472.472,0,0,1,.659.676l-.68.663A.47.47,0,0,1,44.322,34.8Zm2.041-1.988a.472.472,0,0,1-.329-.81l.681-.663a.472.472,0,1,1,.658.676l-.681.663A.469.469,0,0,1,46.364,32.814Zm2.042-1.988a.472.472,0,0,1-.329-.81l.68-.663a.472.472,0,0,1,.659.676l-.68.663A.47.47,0,0,1,48.406,30.826Zm2.041-1.988a.472.472,0,0,1-.329-.81l.681-.663a.472.472,0,1,1,.658.676l-.681.663A.469.469,0,0,1,50.447,28.838Z" transform="translate(-1.901 -10.91)"/>
    <path id="Path_16" data-name="Path 16" class="cls-1" d="M16.222,95.911a.472.472,0,0,1-.329-.81l.338-.329a.472.472,0,0,1,.659.677l-.338.329A.473.473,0,0,1,16.222,95.911Z" transform="translate(0 -46.502)"/>
    <path id="Path_17" data-name="Path 17" class="cls-1" d="M25.849,24.5h8.869a.493.493,0,1,0,0-.985H25.849a.493.493,0,1,0,0,.985Z" transform="translate(-5.072 -8.95)"/>
    <path id="Path_18" data-name="Path 18" class="cls-1" d="M32.614,31.87H25.849a.493.493,0,1,0,0,.985h6.765a.493.493,0,0,0,0-.985Z" transform="translate(-5.072 -13.359)"/>
    <path id="Path_19" data-name="Path 19" class="cls-1" d="M32.614,48.573H25.849a.493.493,0,0,0,0,.986h6.765a.493.493,0,0,0,0-.986Z" transform="translate(-5.072 -22.179)"/>
    <path id="Path_20" data-name="Path 20" class="cls-1" d="M32.614,40.221H25.849a.493.493,0,1,0,0,.985h6.765a.493.493,0,0,0,0-.985Z" transform="translate(-5.072 -17.769)"/>
    <path id="Path_21" data-name="Path 21" class="cls-1" d="M53.977,23.519h-.986a.493.493,0,1,0,0,.985h.986a.493.493,0,1,0,0-.985Z" transform="translate(-19.404 -8.95)"/>
    <path id="Path_22" data-name="Path 22" class="cls-1" d="M48.912,23.519h-.986a.493.493,0,1,0,0,.985h.986a.493.493,0,1,0,0-.985Z" transform="translate(-16.73 -8.95)"/>
    <path id="Path_23" data-name="Path 23" class="cls-1" d="M53.977,31.87h-.986a.493.493,0,0,0,0,.985h.986a.493.493,0,0,0,0-.985Z" transform="translate(-19.404 -13.359)"/>
    <path id="Path_24" data-name="Path 24" class="cls-1" d="M48.912,31.87h-.986a.493.493,0,0,0,0,.985h.986a.493.493,0,0,0,0-.985Z" transform="translate(-16.73 -13.359)"/>
    <path id="Path_25" data-name="Path 25" class="cls-1" d="M43.848,31.87h-.986a.493.493,0,1,0,0,.985h.986a.493.493,0,0,0,0-.985Z" transform="translate(-14.056 -13.359)"/>
    <path id="Path_26" data-name="Path 26" class="cls-1" d="M39.766,7.06a.6.6,0,0,0-.155-.314.626.626,0,0,0-.864,0L37.208,8.285,35.669,6.746a.626.626,0,0,0-.864,0L33.266,8.285,31.727,6.746a.626.626,0,0,0-.864,0L29.324,8.285,27.785,6.746a.627.627,0,0,0-.864,0L25.382,8.285,23.842,6.746a.627.627,0,0,0-.864,0L21.44,8.285,19.9,6.746a.643.643,0,0,0-.874-.01.585.585,0,0,0-.153.324l.005,28.814a.987.987,0,0,0,.159.313.626.626,0,0,0,.864,0l1.539-1.539,1.539,1.539a.625.625,0,0,0,.864,0l1.539-1.539.74.74.88-.848-1.188-1.188a.627.627,0,0,0-.864,0l-1.539,1.54-1.539-1.54a.627.627,0,0,0-.864,0l-.928.928V8.652l.928.928a.624.624,0,0,0,.864,0l1.539-1.539L24.95,9.58a.624.624,0,0,0,.864,0l1.539-1.539L28.892,9.58a.624.624,0,0,0,.864,0l1.539-1.539L32.834,9.58a.624.624,0,0,0,.864,0l1.539-1.539L36.776,9.58a.611.611,0,0,0,.864,0l.928-.928V23.391l1.221-1.178Z" transform="translate(-1.649 0)"/>
    <path id="Path_27" data-name="Path 27" class="cls-1" d="M56.013,53.538l-.993.99V65.272l-1.135-1.124a.494.494,0,0,0-.7,0l-1.614,1.632L49.943,64.17a.493.493,0,0,0-.7,0L47.632,65.8,46,64.191a.487.487,0,0,0-.5-.113l-2.466,2.49.308.3a.493.493,0,0,0,.7,0l1.614-1.631,1.631,1.614a.493.493,0,0,0,.7,0L49.6,65.217l1.631,1.614a.494.494,0,0,0,.7,0L53.543,65.2l1.631,1.614a.5.5,0,0,0,.7,0,.531.531,0,0,0,.143-.349V53.538Z" transform="translate(-14.41 -24.8)"/>
    <path id="Path_28" data-name="Path 28" class="cls-1" d="M47.912,41.242a4.368,4.368,0,0,1,.774.363l.916-.869a7.7,7.7,0,0,0-1.69-.806V36.807c.428,0,1.4.67,1.583.67a.563.563,0,0,0,.584-.556c0-.713-1.127-1.07-2.167-1.2v-.67c0-.185-.1-.271-.314-.271a.24.24,0,0,0-.271.243v.7a2.894,2.894,0,0,0-2.738,2.567c0,1.611,1.226,2.3,2.738,2.724V42.9l.585-.556v-1.1Zm-.585-1.526c-.927-.328-1.4-.827-1.4-1.483a1.463,1.463,0,0,1,1.4-1.426Z" transform="translate(-15.228 -14.897)"/>
    <path id="Path_29" data-name="Path 29" class="cls-1" d="M44.877,54.783a.556.556,0,0,0-.5.584.709.709,0,0,0,.312.5l.885-.845A1.2,1.2,0,0,0,44.877,54.783Z" transform="translate(-15.116 -25.458)"/>
    <path id="Path_30" data-name="Path 30" class="cls-1" d="M57.4,62.663a1.947,1.947,0,0,1-1.525,1.982V62.961l-.585.581V64.7a3.738,3.738,0,0,1-.981-.186l-.895.889a4.931,4.931,0,0,0,1.877.381v.67a.292.292,0,1,0,.585,0v-.727a3.152,3.152,0,0,0,2.866-3.038,2.458,2.458,0,0,0-.725-1.859l-.9.9A1.457,1.457,0,0,1,57.4,62.663Z" transform="translate(-19.886 -28.652)"/>
  </g>
</svg>
