<svg xmlns="http://www.w3.org/2000/svg" viewBox="0 0 44.443 39.807">
  <defs>
    <style>
      .cls-1 {
        fill: #ec5058;
      }
    </style>
  </defs>
  <g id="i-dcenni" transform="translate(-1.489 -2.22)">
    <path id="Path_13" data-name="Path 13" class="cls-1" d="M15.383,12.125H32.02a4.058,4.058,0,0,1,2.711.994,3.223,3.223,0,0,1,1.118,2.417V25.35a.666.666,0,0,0,.7.625h3.32a2.561,2.561,0,0,0,2.694-2.4V8.468a2.561,2.561,0,0,0-2.694-2.4H17.377a2.561,2.561,0,0,0-2.694,2.4v3.049a.668.668,0,0,0,.7.608Zm.7-3.674A1.23,1.23,0,0,1,17.377,7.3H39.845a1.23,1.23,0,0,1,1.293,1.154V23.576a1.23,1.23,0,0,1-1.293,1.154h-2.6V15.537a4.408,4.408,0,0,0-1.528-3.3,5.55,5.55,0,0,0-3.7-1.36H16.083ZM7.636,36.576h3.88v4.015a1.451,1.451,0,0,0,1,1.326,1.761,1.761,0,0,0,1.757-.31l5.641-5.032H32.02a5.551,5.551,0,0,0,3.7-1.354,4.411,4.411,0,0,0,1.535-3.29V29.849h2.619c3.868,0,7-2.8,7-6.248V8.468c0-3.451-3.136-6.248-7-6.248H17.377c-3.868,0-7,2.8-7,6.248v2.408H7.636A5.546,5.546,0,0,0,3.95,12.243a4.407,4.407,0,0,0-1.52,3.294V31.931A4.954,4.954,0,0,0,7.636,36.576ZM3.831,15.537a3.222,3.222,0,0,1,1.109-2.41,4.055,4.055,0,0,1,2.7-1h3.432a.666.666,0,0,0,.7-.625V8.468c0-2.761,2.509-5,5.6-5H39.845c3.095,0,5.6,2.238,5.6,5V23.576c0,2.761-2.509,5-5.6,5h-3.32a.662.662,0,0,0-.677.629v2.728a3.226,3.226,0,0,1-1.124,2.407,4.06,4.06,0,0,1-2.7.988H19.613a.742.742,0,0,0-.514.2l-.061.05-5.757,5.148a.234.234,0,0,1-.231.04.193.193,0,0,1-.133-.173v-4.64a.666.666,0,0,0-.7-.625H7.636a3.622,3.622,0,0,1-3.806-3.395Zm20.942,9.626a4.138,4.138,0,0,0-2.3-2.787,18.16,18.16,0,0,0-1.8-.737l-.229-.083a3.5,3.5,0,0,1-.831-.417l-.028-.021.047-.021a1.036,1.036,0,0,1,.327-.05,4.394,4.394,0,0,1,1.975.35,1.551,1.551,0,0,0,1.209.087,1.284,1.284,0,0,0,.733-.833c.1-.279.191-.562.28-.833l.1-.321a1.215,1.215,0,0,0-.808-1.541A7.8,7.8,0,0,0,21.77,17.5c0-1.1-.313-1.629-1.807-1.629H19.38a1.433,1.433,0,0,0-1.083.347,1.117,1.117,0,0,0-.379.969c0,.121,0,.242,0,.383v.154a3.853,3.853,0,0,0-3.012,3.461,3.553,3.553,0,0,0,2.227,3.445,12.088,12.088,0,0,0,1.658.691c.224.079.467.158.663.246a2.591,2.591,0,0,1,.588.3.23.23,0,0,1,.121.183c0,.05-.07.1-.163.137a1.973,1.973,0,0,1-.934.1A5.864,5.864,0,0,1,17.2,25.8a1.84,1.84,0,0,0-.775-.2,1.226,1.226,0,0,0-1.2.941c-.121.346-.229.691-.336,1.041a1.179,1.179,0,0,0,.019,1.046,1.421,1.421,0,0,0,.873.7,8.151,8.151,0,0,0,1.98.537v.471a1.182,1.182,0,0,0,.4.9,1.49,1.49,0,0,0,1,.373h1.139a1.441,1.441,0,0,0,.984-.364,1.14,1.14,0,0,0,.385-.886V29.64a4.656,4.656,0,0,0,2.167-1.312h0a3.549,3.549,0,0,0,.943-3.166Zm-2,2.374h0a3.305,3.305,0,0,1-1.686.962.909.909,0,0,0-.808.962v.887H19.2a.242.242,0,0,1,0-.037v-.666a1.1,1.1,0,0,0-.163-.6.655.655,0,0,0-.191-.192,1.451,1.451,0,0,0-.63-.179,7.155,7.155,0,0,1-1.826-.462,1.545,1.545,0,0,1-.2-.1,1.226,1.226,0,0,1,.047-.192c.1-.333.205-.666.322-1h0a7.365,7.365,0,0,0,2.335.621,3.538,3.538,0,0,0,1.667-.2,1.441,1.441,0,0,0,.992-1.119,1.337,1.337,0,0,0-.623-1.314A3.973,3.973,0,0,0,20,24.43c-.233-.092-.467-.179-.71-.262a10.981,10.981,0,0,1-1.457-.6A2.355,2.355,0,0,1,16.3,21.289a2.62,2.62,0,0,1,2.111-2.37c.714-.233.9-.462.906-1.125v-.675h.654q.2-.01.392,0v.454c0,.75.257,1.016,1.093,1.133a6.232,6.232,0,0,1,1.4.379H22.9v.025l-.1.325c-.084.262-.168.525-.266.8a5.921,5.921,0,0,0-2.662-.471,2.5,2.5,0,0,0-.812.154,1.34,1.34,0,0,0-.9,1,1.229,1.229,0,0,0,.588,1.2,4.883,4.883,0,0,0,1.167.587l.233.087a16.755,16.755,0,0,1,1.653.675A2.872,2.872,0,0,1,23.4,25.4,2.4,2.4,0,0,1,22.774,27.537Z" transform="translate(-0.941)"/>
  </g>
</svg>
