<svg xmlns="http://www.w3.org/2000/svg" viewBox="0 0 44.619 40">
  <defs>
    <style>
      .cls-1 {
        fill: #ec5058;
        fill-rule: evenodd;
      }
    </style>
  </defs>
  <g id="i-dell" transform="translate(-2 -3.993)">
    <g id="Group_151" data-name="Group 151" transform="translate(2 3.993)">
      <g id="Group_150" data-name="Group 150" transform="translate(0 0)">
        <g id="Group_149" data-name="Group 149" transform="translate(0 0)">
          <g id="Group_148" data-name="Group 148" transform="translate(0 0)">
            <path id="Path_36" data-name="Path 36" class="cls-1" d="M-29.782,1019.87h-.012a.74.74,0,0,0-.078.016.767.767,0,0,0-.186.054l-17.784,7.606a.768.768,0,0,0-.559.409l-.006.015a.77.77,0,0,0-.078.523v22.9a.773.773,0,0,0,.006.094c0,.005,0,.01,0,.016s.006.032.009.047a.769.769,0,0,0,.466.58l17.946,7.676a.777.777,0,0,0,.27.06h.138a.78.78,0,0,0,.228-.057l9.76-4.176a8.458,8.458,0,0,0,7.321,4.242,8.471,8.471,0,0,0,8.459-8.459,8.464,8.464,0,0,0-7.113-8.339v-14.524a.769.769,0,0,0-.129-.664.769.769,0,0,0-.523-.334l-17.775-7.6a.775.775,0,0,0-.2-.057H-29.7a.781.781,0,0,0-.081,0Zm.042,1.6,3.77,1.61-15.978,6.834-.045.022-3.773-1.613,16.026-6.852Zm5.729,2.448,4.572,1.955-16.279,6.96a.77.77,0,0,0-.46.814c0,.02,0,.04,0,.06v8.225l-1.667-2.5a.769.769,0,0,0-.985-.261l-1.962.979V1031.1l16.783-7.176Zm6.525,2.791,3.773,1.613-16.026,6.855-3.77-1.613,15.978-6.834c.015-.006.03-.013.045-.021Zm-29.46,2.785,4.614,1.971v9.934a.77.77,0,0,0,.364.653.769.769,0,0,0,.747.035l2.469-1.235,2.659,3.986a.769.769,0,0,0,.766.412.733.733,0,0,0,.081-.016h.024l.051-.015a.775.775,0,0,0,.2-.1.769.769,0,0,0,.324-.73v-9.631l4.134,1.766v21.4l-16.438-7.032v-21.4Zm34.414,0v13.452a8.469,8.469,0,0,0-8.042,6.549l-1.9.808-4.485,1.919a.769.769,0,0,0-.406,1.009.769.769,0,0,0,1.009.406l4.485-1.92,1.072-.456c0,.045-.006.089-.006.135a8.393,8.393,0,0,0,.5,2.821l-8.667,3.707v-21.4l16.438-7.026Zm.192,14.981a6.909,6.909,0,0,1,6.921,6.921,6.91,6.91,0,0,1-6.921,6.921,6.91,6.91,0,0,1-6.921-6.921A6.909,6.909,0,0,1-12.34,1044.479Zm-9.853,2.695a.76.76,0,0,0-.276.066l-4.485,1.92a.769.769,0,0,0-.5.617.77.77,0,0,0,.313.731.769.769,0,0,0,.793.063l4.485-1.916a.769.769,0,0,0,.462-.879A.769.769,0,0,0-22.194,1047.173Zm14.428.793a.77.77,0,0,0-.481.165l-5.966,4.554-2.01-2.463a.77.77,0,0,0-1.083-.11.77.77,0,0,0-.11,1.083l2.953,3.614,7.15-5.455a.769.769,0,0,0,.274-.858.769.769,0,0,0-.728-.53Z" transform="translate(48.5 -1019.87)"/>
          </g>
        </g>
      </g>
    </g>
  </g>
</svg>
