<svg xmlns="http://www.w3.org/2000/svg" viewBox="0 0 41.874 42.837">
  <defs>
    <style>
      .cls-1 {
        fill: #ec5058;
      }
    </style>
  </defs>
  <g id="i-kachestvo" transform="translate(-1 -1)">
    <g id="Group_39" data-name="Group 39" transform="translate(1 1)">
      <path id="Path_12" data-name="Path 12" class="cls-1" d="M25.243,22.419a8.4,8.4,0,0,0,.733-3.173,10.177,10.177,0,0,0,2.715-6.953v-3a3.434,3.434,0,0,0-2.93-3.424A8.452,8.452,0,0,0,18.144,1H17.007a9.836,9.836,0,0,0-6.1,2.14,10.176,10.176,0,0,0-3.833,8.018v1.134a10.174,10.174,0,0,0,2.716,6.953,8.331,8.331,0,0,0,3.363,6.439v1.707l-5.281,1.2A8.886,8.886,0,0,0,1,37.361v6.477H42.874V22.419ZM32.068,23.8h2.7v5.527h-2.7Zm-17.56,8.214a4.638,4.638,0,0,0,6.754,0v7.677H14.508Zm8.1-6.33a8.185,8.185,0,0,0,1.351-1.255V27.7l-1.351-.307ZM8.429,11.157A8.792,8.792,0,0,1,11.741,4.23a8.5,8.5,0,0,1,5.267-1.848h1.137A7.116,7.116,0,0,1,24.693,6.8l.176.419h.445A2.052,2.052,0,0,1,27.34,9.291v3A8.828,8.828,0,0,1,25.989,17v-5.64h-1.48l-.233.1a35.6,35.6,0,0,1-13.545,2.668H9.78V17a8.828,8.828,0,0,1-1.351-4.712Zm2.7,7.807V15.507A36.892,36.892,0,0,0,24.638,12.8v6.166a6.756,6.756,0,1,1-13.508,0Zm6.754,8.291a7.9,7.9,0,0,0,3.377-.763v2.145a3.378,3.378,0,1,1-6.754,0V26.492A7.9,7.9,0,0,0,17.885,27.255ZM2.351,37.361a7.518,7.518,0,0,1,5.817-7.418l1.612-.367V39.692H7.754v2.764h-5.4ZM9.1,42.456V41.074h2.026V29.268l2.026-.461V41.074h9.455V28.807l1.351.307V42.456Zm32.418,0H25.314V23.8h5.4V30.71h5.4V23.8h5.4Z" transform="translate(-1 -1)"/>
      <rect id="Rectangle_21" data-name="Rectangle 21" class="cls-1" width="1.351" height="1.382" transform="translate(37.821 38.692)"/>
      <rect id="Rectangle_22" data-name="Rectangle 22" class="cls-1" width="4.052" height="1.382" transform="translate(32.418 38.692)"/>
      <rect id="Rectangle_23" data-name="Rectangle 23" class="cls-1" width="6.754" height="1.382" transform="translate(32.418 35.928)"/>
    </g>
  </g>
</svg>
