<svg xmlns="http://www.w3.org/2000/svg" viewBox="0 0 44.125 40">
  <defs>
    <style>
      .cls-1 {
        fill: #ec5058;
      }
    </style>
  </defs>
  <g id="i-phone" transform="translate(-8.511 -964.752)">
    <path id="Path_34" data-name="Path 34" class="cls-1" d="M41.513,964.752a8,8,0,0,0-6.016,2.725,19.03,19.03,0,0,0-3.872-.631c-.456-.026-.92-.024-1.379-.017a18.919,18.919,0,0,0-18.08,14.308c0,.005,0,.011,0,.017-.065.258-.12.516-.166.764l-2.36-3.955a.628.628,0,0,0-.631-.3.643.643,0,0,0-.415.931l3.124,5.235a.635.635,0,0,0,.831.2l5.235-3.108a.618.618,0,1,0-.631-1.063l-3.972,2.376c.049-.265.1-.528.166-.781,0-.005,0-.012,0-.017a17.759,17.759,0,0,1,21.371-12.912,8.01,8.01,0,0,0,12.131,10.22,17.691,17.691,0,0,1,1.346,4.919.629.629,0,0,0,.681.532.642.642,0,0,0,.548-.681,18.807,18.807,0,0,0-1.645-5.733,8.03,8.03,0,0,0-6.265-13.028Zm0,1.23a6.8,6.8,0,1,1-6.8,6.8A6.788,6.788,0,0,1,41.513,965.982Zm-.15,2.459a.612.612,0,0,0-.532.615v4.5a.612.612,0,0,0,.6.615h2.293a.615.615,0,0,0,0-1.23H42.045v-3.889a.611.611,0,0,0-.681-.615Zm-15.072,6.082a3.008,3.008,0,0,0-1.4.449c-2.836,1.657-4.986,6.118-2.543,11.35.373.789,1.058,1.944,1.662,2.925.005.009-.005.025,0,.033a.6.6,0,0,0,.05.083c0,.006.013.01.017.017s0,.011,0,.016c.069.106.142.213.216.316.012.016.022.034.033.05a3.5,3.5,0,0,0,.216.349.67.67,0,0,0,.05.05.609.609,0,0,0,.083.083,31.2,31.2,0,0,0,1.978,2.659c3.809,4.341,8.754,4.181,11.416,2.243a2.7,2.7,0,0,0,1.147-1.562,1.814,1.814,0,0,0-.814-1.811c-.792-.56-1.546-1.046-2.343-1.579l-.05-.017a1.564,1.564,0,0,0-1.246-.249,1.9,1.9,0,0,0-.881.7c-.285.316-.43.435-.582.482a1.788,1.788,0,0,1-.947-.1c-1.57-.44-2.756-1.991-3.789-3.573-.138-.21-.264-.41-.4-.615-.01-.017-.021-.034-.033-.05l-.017-.016c-1.034-1.583-1.976-3.279-1.745-4.9a1.688,1.688,0,0,1,.283-.881,1.582,1.582,0,0,1,.7-.349,1.918,1.918,0,0,0,.98-.532,1.543,1.543,0,0,0,.283-1.23q0-.025,0-.05c-.167-.942-.32-1.84-.515-2.792a1.811,1.811,0,0,0-1.329-1.462,2.01,2.01,0,0,0-.482-.033Zm.05,1.23a.8.8,0,0,1,.183,0c.2.041.3.074.382.5,0,.005,0,.011,0,.017.184.9.333,1.771.5,2.709.006.056,0,.011,0,.05.012.194-.006.275.017.249s-.1.066-.449.183a2.6,2.6,0,0,0-1.23.7,2.841,2.841,0,0,0-.582,1.529c-.3,2.115.828,3.994,1.861,5.584,0,.017.01.034.017.05a.622.622,0,0,0,.066.1c0,.005,0,.011,0,.016.156.239.312.472.449.681,1.057,1.619,2.361,3.48,4.47,4.071a2.88,2.88,0,0,0,1.645.083,2.55,2.55,0,0,0,1.13-.831,3.815,3.815,0,0,1,.332-.332h.017a2.359,2.359,0,0,1,.266.133c.792.528,1.524,1.013,2.277,1.545h.017c.359.251.357.353.316.548a1.657,1.657,0,0,1-.665.814c-2.1,1.531-6.332,1.879-9.788-2.061A31.857,31.857,0,0,1,25.56,989.4l-.017-.017c-.006-.008-.024-.037-.033-.05a.434.434,0,0,0-.033-.033c-.039-.061-.073-.125-.116-.2-.01-.017-.021-.034-.033-.05-.063-.088-.116-.16-.166-.233,0-.005,0-.011,0-.016s-.011-.024-.017-.033l-.017-.033c-.606-.977-1.32-2.2-1.662-2.925,0-.005,0-.012,0-.016-2.206-4.739-.2-8.463,2.044-9.771a1.873,1.873,0,0,1,.831-.266ZM12.249,987.369a.635.635,0,0,0-.532.681,18.979,18.979,0,0,0,37.423,1.6l2.36,3.972a.611.611,0,1,0,1.047-.631l-3.124-5.235a.625.625,0,0,0-.565-.3.617.617,0,0,0-.266.083l-5.235,3.124a.611.611,0,1,0,.631,1.047l3.988-2.376A17.765,17.765,0,0,1,12.93,987.9.636.636,0,0,0,12.249,987.369Z"/>
  </g>
</svg>
