<svg xmlns="http://www.w3.org/2000/svg" viewBox="0 0 25.455 40">
  <defs>
    <style>
      .cls-1 {
        fill: #ec5058;
      }
    </style>
  </defs>
  <g id="i-place" transform="translate(-22 -5.977)">
    <g id="Group_153" data-name="Group 153" transform="translate(22 5.977)">
      <path id="Path_37" data-name="Path 37" class="cls-1" d="M34.727,958.339a12.182,12.182,0,0,0-9.034,4.433A14.35,14.35,0,0,0,22,971.979c0,7.736,6.457,16.593,11.946,25.916a.909.909,0,0,0,1.563,0c5.489-9.323,11.946-18.179,11.946-25.916a14.35,14.35,0,0,0-3.693-9.207A12.182,12.182,0,0,0,34.727,958.339Zm0,1.819a10.379,10.379,0,0,1,7.67,3.808,12.7,12.7,0,0,1,3.239,8.013c0,6.361-5.588,14.765-10.909,23.685-5.321-8.92-10.909-17.324-10.909-23.685a12.7,12.7,0,0,1,3.239-8.013A10.379,10.379,0,0,1,34.727,960.158Zm0,3.637a5.456,5.456,0,1,0,5.455,5.456A5.469,5.469,0,0,0,34.727,963.8Zm0,1.819a3.637,3.637,0,1,1-3.636,3.637A3.623,3.623,0,0,1,34.727,965.614Z" transform="translate(-22 -958.339)"/>
    </g>
  </g>
</svg>
