<svg xmlns="http://www.w3.org/2000/svg" viewBox="0 0 40.159 42.84">
  <defs>
    <style>
      .cls-1 {
        fill: #ec5058;
      }
    </style>
  </defs>
  <g id="i-udobstvo" transform="translate(0 0)">
    <path id="Path_7" data-name="Path 7" class="cls-1" d="M254.29,282.822h-1.327a.443.443,0,1,0,0,.886h1.327a.443.443,0,1,0,0-.886Z" transform="translate(-234.107 -248.554)"/>
    <path id="Path_8" data-name="Path 8" class="cls-1" d="M240.341,271.106a2.032,2.032,0,0,0-1.044-.287h-1.161v-3.427a2.159,2.159,0,0,0-2.157-2.158h-3.925v-2.312a.443.443,0,0,0-.443-.443H214.525a.443.443,0,0,0-.443.443v15.457a.443.443,0,0,0,.443.443h1.889a2.416,2.416,0,0,0,4.751,0h11.11a2.416,2.416,0,0,0,4.751,0H240.9a.443.443,0,0,0,.443-.443v-1.531h0v-3.981A2.045,2.045,0,0,0,240.341,271.106Zm-4.3,5.3a2.41,2.41,0,0,0-2.782,0h-1.207v-4.7h5.2v4.7Zm-3.767,1.531h-11.11a2.376,2.376,0,0,0-.219-.645H232.5A2.391,2.391,0,0,0,232.276,277.935ZM217.4,276.4h-2.431V263.364h16.2v7.9h0V276.4H220.181a2.408,2.408,0,0,0-2.782,0Zm20.737,0v-4.7H239.3a1.149,1.149,0,0,1,.514.121,1.161,1.161,0,0,1,.647,1.039V276.4Zm-2.161-10.283h0a1.271,1.271,0,0,1,1.271,1.27v3.428h-5.2v-4.7h3.921Zm-21.007,11.169h1.665a2.391,2.391,0,0,0-.218.645h-1.446Zm3.822,2.62a1.531,1.531,0,1,1,1.531-1.531h0A1.533,1.533,0,0,1,218.79,279.909Zm15.862,0a1.531,1.531,0,1,1,1.531-1.531A1.533,1.533,0,0,1,234.652,279.909Zm2.375-1.975a2.375,2.375,0,0,0-.218-.645h3.649v.645Z" transform="translate(-214.082 -237.955)"/>
    <path id="Path_9" data-name="Path 9" class="cls-1" d="M248.755,241.649H225.106a3.833,3.833,0,1,1,0-7.666h19.079a.443.443,0,0,0,0-.886H225.106a4.719,4.719,0,0,0,0,9.439h23.648a7.884,7.884,0,1,1,0,15.768h-2.744a.443.443,0,1,0,0,.887h2.744a8.771,8.771,0,1,0,0-17.542Z" transform="translate(-217.367 -222.648)"/>
    <path id="Path_10" data-name="Path 10" class="cls-1" d="M276.479,225.879a.444.444,0,0,0,.771,0l3.742-6.588a5.067,5.067,0,1,0-8.255,0Zm.385-13.709a4.181,4.181,0,0,1,3.4,6.609.423.423,0,0,0-.034.052l-3.369,5.932L273.5,218.83q-.012-.021-.026-.04a4.18,4.18,0,0,1,3.394-6.62Z" transform="translate(-244.151 -211.284)"/>
    <path id="Path_11" data-name="Path 11" class="cls-1" d="M279.182,221.845a2.934,2.934,0,1,0-2.935-2.935A2.938,2.938,0,0,0,279.182,221.845Zm0-4.983a2.048,2.048,0,1,1-2.048,2.048A2.051,2.051,0,0,1,279.182,216.862Z" transform="translate(-246.469 -213.728)"/>
  </g>
</svg>
