<svg xmlns="http://www.w3.org/2000/svg" viewBox="0 0 113.603 121.276">
  <defs>
    <style>
      .cls-1 {
        fill: #d6434b;
      }

      .cls-2 {
        fill: #ffd43e;
      }

      .cls-3 {
        fill: #fa0;
      }

      .cls-4 {
        fill: #fff;
      }
    </style>
  </defs>
  <g id="logo-footer" transform="translate(-903 -3939.032)">
    <g id="Group_357" data-name="Group 357" transform="translate(-143.752 -518.275)">
      <path id="Path_1" data-name="Path 1" class="cls-1" d="M32.75.1H63.326c2.575,0,2.9.644,1.609,2.9-2.253,3.862-4.506,7.725-6.759,11.909a1.765,1.765,0,0,1-1.931,1.287H9.576a2.43,2.43,0,0,1-2.253-1.287C5.07,10.721,2.816,6.859.563,2.675-.4,1.066-.08.1,1.851.1Z" transform="translate(1070.624 4457.208)"/>
      <path id="Path_14" data-name="Path 14" class="cls-2" d="M30.961,11.2H6.5c4.184,7.081,8.047,14.162,12.231,21.565C22.593,25.362,26.777,18.281,30.961,11.2Z" transform="translate(1084.965 4481.834)"/>
      <path id="Path_20" data-name="Path 20" class="cls-3" d="M47.273,6.122c-2.575,4.506-4.828,8.368-7.4,12.553-.322.322-.966.966-1.287.966H12.19a7.036,7.036,0,0,1-1.609-.966C8.328,14.49,5.753,10.628,3.5,6.444V5.8C17.984,6.122,32.468,6.122,47.273,6.122Z" transform="translate(1078.309 4469.854)"/>
    </g>
    <g id="Group_358" data-name="Group 358" transform="translate(-224.443 -440)">
      <path id="Path_2" data-name="Path 2" class="cls-4" d="M28.7,10.67c-.72,3.358-1.2,6.717-1.919,10.315-.48,2.639-.96,5.038-1.439,7.676a2.038,2.038,0,0,1-1.679,1.679c-1.439.24-2.639.24-3.6-1.2,0-.72-.24-1.2,0-1.679C21.5,19.306,22.941,10.91,24.38,2.754a2.615,2.615,0,0,1,2.639-2.4c3.358-.24,4.318.48,5.517,3.6,1.679,4.558,3.6,9.355,5.277,13.913a3.2,3.2,0,0,0,.72,1.2c.48-2.159.72-4.078,1.2-6.237.72-3.6,1.2-7.2,1.919-10.795.24-.96.72-1.679,1.679-1.679,1.2,0,2.4-.48,3.358.72a3.331,3.331,0,0,1,.48,2.639c-1.439,7.916-2.879,15.832-4.078,23.749-.24,1.2-.48,2.159-1.679,2.639-1.439.48-3.118.72-4.078-.48a10.062,10.062,0,0,1-2.159-3.358c-1.919-4.8-3.6-9.6-5.517-14.393-.24-.48-.24-.72-.48-1.2Z" transform="translate(1107.488 4457.387)"/>
      <path id="Path_3" data-name="Path 3" class="cls-4" d="M60.1,11.575h6.477c.96,0,2.4.24,3.118-.24s.48-1.919.72-2.879c.48-2.159.72-4.558,1.2-6.717Q71.972.3,73.052.3h1.679C76.65.3,77.85,1.5,77.37,3.658c-.72,3.838-1.439,7.436-1.919,11.275-.72,4.558-1.679,8.876-2.4,13.434-.24.72-.24,1.679-1.2,1.919-1.2.24-2.639.48-3.6-.48a2.621,2.621,0,0,1-.96-2.879c.48-2.639.96-5.517,1.439-8.156a2.163,2.163,0,0,1,.24-1.2h-8.4c-.96,0-1.439.24-1.439,1.2-.48,3.118-.96,6.237-1.679,9.355-.24,1.679-.48,2.159-2.159,2.159-1.919.24-3.358-.48-3.838-1.679-.24-.24,0-.72,0-1.2,1.439-8.4,3.118-17.032,4.558-25.428A2.038,2.038,0,0,1,57.7.3h1.919a2.368,2.368,0,0,1,2.159,2.879c-.48,2.4-.96,5.038-1.2,7.436C60.1,10.855,60.1,11.095,60.1,11.575Z" transform="translate(1151.411 4457.442)"/>
      <path id="Path_4" data-name="Path 4" class="cls-4" d="M47.93.231c2.4-.24,3.6.24,4.078,3.118,1.439,7.916,2.879,16.072,4.318,23.988.48,2.159,0,2.879-2.4,2.879-2.4.24-3.6-.96-3.838-3.358a16.509,16.509,0,0,1-.48-3.118c0-.48-.24-.72-.96-.72H40.493a2.04,2.04,0,0,0-1.2.72,50.76,50.76,0,0,0-2.639,5.038c-.72,1.439-1.919,1.439-3.118,1.439a2.716,2.716,0,0,1-2.879-1.679,2.707,2.707,0,0,1,.24-1.919c3.118-5.038,5.757-9.835,8.4-14.873,1.679-3.118,3.358-6,4.8-9.116C45.051.951,46.25-.008,47.93.231Zm-.72,9.355h-.24c-1.439,2.639-2.879,5.277-4.318,8.156h6C48.17,14.864,47.69,12.226,47.21,9.587Z" transform="translate(1122.32 4457.271)"/>
      <path id="Path_5" data-name="Path 5" class="cls-4" d="M56.417,0c1.439.48,3.118.72,4.558,1.2,2.4.96,3.119,2.879,2.159,5.277-.48.96-1.2,1.439-2.159.72-.72,0-1.2-.48-1.919-.72a5.575,5.575,0,0,0-4.8-.24A8.276,8.276,0,0,0,52.1,8.156c-.72,1.2-.48,2.159.72,3.118,1.439.96,2.879,1.439,4.318,2.4,7.2,4.078,5.277,11.754.48,15.113a13.136,13.136,0,0,1-12.954.96,5.773,5.773,0,0,1-1.919-1.439,3.624,3.624,0,0,1-.24-4.558c.48-.72,1.439-.72,2.4,0a11.894,11.894,0,0,0,4.8,1.919c2.159,0,4.078-.48,5.277-2.159s.72-3.118-.96-4.318c-1.439-.96-3.119-1.679-4.558-2.639a7.942,7.942,0,0,1-3.838-5.277,8.935,8.935,0,0,1,5.757-9.835C53.059.48,54.738.48,56.417,0Z" transform="translate(1138.061 4457.022)"/>
      <path id="Path_6" data-name="Path 6" class="cls-4" d="M65.779,30.186a2.436,2.436,0,0,1-2.4-1.2,3.41,3.41,0,0,1-.48-1.439c1.439-8.4,2.879-17.032,4.558-25.428A2.064,2.064,0,0,1,69.377.2H71.3c1.2.24,2.4,1.439,2.159,2.639-1.439,8.636-3.119,17.032-4.558,25.668C68.417,29.946,67.7,30.186,65.779,30.186Z" transform="translate(1167.56 4457.302)"/>
      <path id="Path_7" data-name="Path 7" class="cls-4" d="M41.028,17.509c.24-.72.24-1.679.48-2.4.24-.96.72-1.2,1.439-.96.96,0,.96.72.96,1.439-.24,2.159-.72,4.318-.96,6.477a1.133,1.133,0,0,1-1.2,1.2,2.182,2.182,0,0,1-1.919-.96c-.48-.96-.72-1.679-1.2-2.639-.24.96-.24,1.679-.48,2.639s-.72,1.2-1.439.96c-.96-.24-1.2-.72-.96-1.679a51.952,51.952,0,0,0,.96-6c.24-.72.48-1.439,1.439-1.439s1.679.24,1.919,1.2a4.311,4.311,0,0,0,.96,2.159Z" transform="translate(1129.461 4476.696)"/>
      <path id="Path_8" data-name="Path 8" class="cls-4" d="M57.3,20.1c-1.919-.48-2.159-.96-1.919-1.919a1.006,1.006,0,0,1,1.439-.72c.96.24,2.639-.72,2.879.72a6.781,6.781,0,0,1-.96,4.318c-.48,1.2-3.6.96-5.038.24A3.941,3.941,0,0,1,52.027,18.9a5.163,5.163,0,0,1,6.717-4.558c.48,0,.96.24.96.48a2.549,2.549,0,0,1,.24,1.919c-.24.72-.96.48-1.439.24a2.15,2.15,0,0,0-2.639.24,2.621,2.621,0,0,0-.96,2.879,1.315,1.315,0,0,0,1.439.96Z" transform="translate(1152.286 4476.743)"/>
      <path id="Path_9" data-name="Path 9" class="cls-4" d="M47.6,20.145c0-3.358,1.679-5.517,4.318-6s4.558,1.2,4.318,3.838a9.128,9.128,0,0,1-1.2,3.6c-.96,1.919-4.078,2.639-6,1.439A3.133,3.133,0,0,1,47.6,20.145Zm6-1.919c-.24-.72-.24-1.2-.72-1.439s-.96,0-1.439,0A3.01,3.01,0,0,0,50,19.425c0,.48.24,1.2.48,1.2a1.473,1.473,0,0,0,1.439-.24A3.6,3.6,0,0,0,53.6,18.226Z" transform="translate(1146.158 4476.699)"/>
      <path id="Path_10" data-name="Path 10" class="cls-4" d="M48.762,17.853c-.48,1.2-.72,2.4-1.2,3.358a4.3,4.3,0,0,1-6,1.679,2.891,2.891,0,0,1-1.2-1.2c-1.439-2.879.72-7.2,3.838-7.676C46.843,13.775,48.762,15.215,48.762,17.853Zm-2.4.24c-.24-1.2-.72-1.679-1.919-1.2S43,18.333,42.765,19.532c0,.48.24,1.439.48,1.439a1.971,1.971,0,0,0,1.679-.24C45.643,19.772,45.883,18.813,46.363,18.093Z" transform="translate(1135.401 4476.591)"/>
      <path id="Path_11" data-name="Path 11" class="cls-4" d="M34.758,17.269h1.679c.24-.72.24-1.439.48-2.159.24-.96.72-1.2,1.439-.96.72,0,1.2.48.96,1.439-.48,2.4-.72,4.8-1.2,6.957a1.006,1.006,0,0,1-1.439.72c-.72-.24-1.2-.48-.96-1.439,0-.72.24-1.2.24-1.919-1.439-.48-1.679-.24-1.919,1.2,0,.48-.24.96-.24,1.439a1.006,1.006,0,0,1-1.439.72,1.224,1.224,0,0,1-.96-1.2c.48-2.4.72-4.558,1.2-6.957.24-.96.96-.96,1.679-.96A1.006,1.006,0,0,1,35,15.59,3.557,3.557,0,0,0,34.758,17.269Z" transform="translate(1123.497 4476.696)"/>
      <path id="Path_12" data-name="Path 12" class="cls-4" d="M27.6,17.219a.881.881,0,0,1,.72.24c.96,0,1.679,0,1.679,1.2s-.72,1.2-1.679,1.2c-.72,0-1.2,0-1.2.96H28.8a.879.879,0,0,1,.96.96c0,.72-.24,1.439-.96,1.439H25.2c-.96,0-1.2-.48-1.2-1.439.48-2.159.72-4.318,1.2-6.477.24-.72.48-1.2,1.2-1.2h3.118a1.133,1.133,0,0,1,1.2,1.2c0,.72-.24,1.2-1.2,1.2a6.641,6.641,0,0,0-2.159.24C27.6,16.739,27.6,16.979,27.6,17.219Z" transform="translate(1113.145 4476.747)"/>
      <path id="Path_13" data-name="Path 13" class="cls-4" d="M62.334,17.219h1.2c.72,0,1.2.24,1.2,1.2,0,.72-.24,1.2-1.2,1.439-.72,0-1.679-.48-1.919.96h1.679c.72,0,1.2.24,1.2.96s-.24,1.439-1.2,1.439H59.935a1.213,1.213,0,0,1-1.2-1.679c.48-2.159.72-4.318,1.2-6.237a1.52,1.52,0,0,1,1.439-1.2h2.879c.72,0,1.2.24,1.2,1.2a1.133,1.133,0,0,1-1.2,1.2,4.676,4.676,0,0,0-1.919.24Z" transform="translate(1161.649 4476.747)"/>
      <path id="Path_15" data-name="Path 15" class="cls-4" d="M65.984,20.263c-.24-.24-.72-.48-.96-.72-1.679-.96-2.159-2.159-1.679-3.6s2.4-2.159,3.838-1.919c1.2.24,1.679.72,1.679,1.919-.24.72-.48,1.2-1.439.96a3.043,3.043,0,0,0-1.439-.24c0,.24,0,.24-.24.48.48.24.72.48,1.2.72a2.924,2.924,0,0,1,0,5.038,3.6,3.6,0,0,1-4.318,0,1.3,1.3,0,0,1-.48-1.919c.48-.96.96-.72,1.679-.24C64.784,21.223,65.5,21.223,65.984,20.263Z" transform="translate(1166.156 4476.58)"/>
      <path id="Path_16" data-name="Path 16" class="cls-4" d="M31.1,23.455a3.584,3.584,0,0,1-3.6-3.838c0-2.879,1.679-5.277,4.318-5.517a12.378,12.378,0,0,1,2.639.48c.96.24.96,1.2.48,1.919-.48.96-.96.48-1.679.24a2.707,2.707,0,0,0-1.919.24,3.047,3.047,0,0,0-.96,1.679,1.971,1.971,0,0,0,.24,1.679c.48.24,1.2,0,1.919,0h1.439c0,.72,0,1.679-.48,1.919A3.833,3.833,0,0,1,31.1,23.455Z" transform="translate(1118.041 4476.747)"/>
      <path id="Path_17" data-name="Path 17" class="cls-4" d="M22.555,16.5c-.48,0-.96,0-.96-.24-.48-.24-.72-.72-.96-.96-.24-.72.24-1.2.96-1.2h5.277c.72,0,.96.48.96,1.2s-.24,1.2-.96,1.2c-1.439-.24-1.679.72-1.679,1.679-.24,1.2-.48,2.639-.72,3.838-.24.96-.72,1.2-1.439,1.2-.96-.24-1.2-.72-.96-1.439C21.836,20.1,22.316,18.418,22.555,16.5Z" transform="translate(1108.353 4476.747)"/>
      <path id="Path_18" data-name="Path 18" class="cls-4" d="M47.189,20.677h1.439a1.133,1.133,0,0,1,1.2,1.2c0,.72-.24,1.439-.96,1.439H45.51c-.96,0-1.2-.72-.96-1.439.48-2.159.72-4.558,1.2-6.717.24-.96.72-.96,1.439-.96s.96.48.96,1.2C47.909,16.839,47.429,18.758,47.189,20.677Z" transform="translate(1141.771 4476.886)"/>
      <path id="Path_19" data-name="Path 19" class="cls-4" d="M60.175,15.2c-.48,2.639-.96,5.038-1.439,7.436a1.006,1.006,0,0,1-1.439.72c-.72-.24-1.2-.48-.96-1.439.48-2.4.72-4.558,1.2-6.957A1.23,1.23,0,0,1,58.975,14Z" transform="translate(1158.291 4476.606)"/>
    </g>
  </g>
</svg>
