<svg xmlns="http://www.w3.org/2000/svg" viewBox="0 0 191.781 51.438">
  <defs>
    <style>
      .cls-1 {
        fill: #d6434b;
      }

      .cls-2 {
        fill: #ffd43e;
      }

      .cls-3 {
        fill: #fa0;
      }
    </style>
  </defs>
  <g id="logo" transform="translate(-593.336 175.418)">
    <path id="Path_1" data-name="Path 1" class="cls-1" d="M29.01.1H56.091c2.281,0,2.566.57,1.425,2.566-2,3.421-3.991,6.842-5.986,10.547a1.563,1.563,0,0,1-1.71,1.14H8.485a2.152,2.152,0,0,1-2-1.14C4.494,9.507,2.5,6.086.5,2.381-.352.955-.067.1,1.643.1Z" transform="translate(593.3 -175.233)"/>
    <path id="Path_2" data-name="Path 2" class="cls-1" d="M30.345,12.631c-.855,3.991-1.425,7.982-2.281,12.258-.57,3.136-1.14,5.986-1.71,9.122a2.422,2.422,0,0,1-2,2c-1.71.285-3.136.285-4.276-1.425,0-.855-.285-1.425,0-2,1.71-9.692,3.421-19.669,5.131-29.362A3.108,3.108,0,0,1,28.349.373c3.991-.285,5.131.57,6.556,4.276,2,5.416,4.276,11.117,6.271,16.534a3.8,3.8,0,0,0,.855,1.425c.57-2.566.855-4.846,1.425-7.412.855-4.276,1.425-8.552,2.281-12.828.285-1.14.855-2,2-2,1.425,0,2.851-.57,3.991.855a3.958,3.958,0,0,1,.57,3.136c-1.71,9.407-3.421,18.814-4.846,28.221-.285,1.425-.57,2.566-2,3.136-1.71.57-3.706.855-4.846-.57a11.957,11.957,0,0,1-2.566-3.991c-2.281-5.7-4.276-11.4-6.556-17.1-.285-.57-.285-.855-.57-1.425Z" transform="translate(630.164 -174.936)"/>
    <path id="Path_3" data-name="Path 3" class="cls-1" d="M61.745,13.7h7.7c1.14,0,2.851.285,3.706-.285s.57-2.281.855-3.421c.57-2.566.855-5.416,1.425-7.982Q75.855.3,77.138.3h2c2.281,0,3.706,1.425,3.136,3.991-.855,4.561-1.71,8.837-2.281,13.4-.855,5.416-2,10.547-2.851,15.964-.285.855-.285,2-1.425,2.281-1.425.285-3.136.57-4.276-.57a3.115,3.115,0,0,1-1.14-3.421c.57-3.136,1.14-6.556,1.71-9.692a2.57,2.57,0,0,1,.285-1.425H62.315c-1.14,0-1.71.285-1.71,1.425-.57,3.706-1.14,7.412-2,11.117-.285,2-.57,2.566-2.566,2.566-2.28.285-3.991-.57-4.561-2-.285-.285,0-.855,0-1.425C53.193,22.535,55.188,12.273,56.9,2.3a2.422,2.422,0,0,1,2-2h2.28A2.814,2.814,0,0,1,63.74,3.721c-.57,2.851-1.14,5.986-1.425,8.837C61.745,12.843,61.745,13.128,61.745,13.7Z" transform="translate(688.273 -174.863)"/>
    <path id="Path_4" data-name="Path 4" class="cls-1" d="M51.2.242c2.851-.285,4.276.285,4.846,3.706,1.71,9.407,3.421,19.1,5.131,28.506.57,2.566,0,3.421-2.851,3.421-2.851.285-4.276-1.14-4.561-3.991a19.618,19.618,0,0,1-.57-3.706c0-.57-.285-.855-1.14-.855H42.364a2.424,2.424,0,0,0-1.425.855A60.319,60.319,0,0,0,37.8,34.164c-.855,1.71-2.281,1.71-3.706,1.71-1.71,0-2.851-.57-3.421-2a3.217,3.217,0,0,1,.285-2.281c3.706-5.986,6.842-11.688,9.977-17.674,2-3.706,3.991-7.127,5.7-10.832C47.78,1.1,49.206-.044,51.2.242Zm-.855,11.117h-.285c-1.71,3.136-3.421,6.271-5.131,9.692h7.127C51.486,17.63,50.916,14.495,50.346,11.359Z" transform="translate(649.786 -175.09)"/>
    <path id="Path_5" data-name="Path 5" class="cls-1" d="M59.168,0c1.71.57,3.706.855,5.416,1.425,2.851,1.14,3.706,3.421,2.566,6.271-.57,1.14-1.425,1.71-2.566.855-.855,0-1.425-.57-2.281-.855a6.625,6.625,0,0,0-5.7-.285,9.835,9.835,0,0,0-2.566,2.281c-.855,1.425-.57,2.566.855,3.706,1.71,1.14,3.421,1.71,5.131,2.851,8.552,4.846,6.271,13.968.57,17.959-4.846,3.136-9.977,3.421-15.393,1.14a6.861,6.861,0,0,1-2.281-1.71,4.307,4.307,0,0,1-.285-5.416c.57-.855,1.71-.855,2.851,0a14.135,14.135,0,0,0,5.7,2.281c2.566,0,4.846-.57,6.271-2.566s.855-3.706-1.14-5.131c-1.71-1.14-3.706-2-5.416-3.136A9.437,9.437,0,0,1,46.34,13.4,10.618,10.618,0,0,1,53.181,1.71C55.177.57,57.172.57,59.168,0Z" transform="translate(670.611 -175.418)"/>
    <path id="Path_6" data-name="Path 6" class="cls-1" d="M66.321,35.833a2.9,2.9,0,0,1-2.851-1.425,4.052,4.052,0,0,1-.57-1.71c1.71-9.977,3.421-20.239,5.416-30.217A2.452,2.452,0,0,1,70.6.2h2.281c1.425.285,2.851,1.71,2.566,3.136-1.71,10.262-3.706,20.239-5.416,30.5C69.456,35.548,68.6,35.833,66.321,35.833Z" transform="translate(709.638 -175.048)"/>
    <path id="Path_7" data-name="Path 7" class="cls-1" d="M42.038,18.158c.285-.855.285-2,.57-2.851.285-1.14.855-1.425,1.71-1.14,1.14,0,1.14.855,1.14,1.71-.285,2.566-.855,5.131-1.14,7.7A1.347,1.347,0,0,1,42.893,25a2.593,2.593,0,0,1-2.281-1.14c-.57-1.14-.855-2-1.425-3.136-.285,1.14-.285,2-.57,3.136s-.855,1.425-1.71,1.14c-1.14-.285-1.425-.855-1.14-2a61.735,61.735,0,0,0,1.14-7.127c.285-.855.57-1.71,1.71-1.71s2,.285,2.281,1.425a5.122,5.122,0,0,0,1.14,2.566Z" transform="translate(659.234 -149.391)"/>
    <path id="Path_8" data-name="Path 8" class="cls-1" d="M58.307,21.231c-2.281-.57-2.566-1.14-2.281-2.281a1.2,1.2,0,0,1,1.71-.855c1.14.285,3.136-.855,3.421.855a8.058,8.058,0,0,1-1.14,5.131c-.57,1.425-4.276,1.14-5.986.285a4.683,4.683,0,0,1-2-4.561c.57-4.276,4.276-6.556,7.982-5.416.57,0,1.14.285,1.14.57a3.029,3.029,0,0,1,.285,2.281c-.285.855-1.14.57-1.71.285a2.555,2.555,0,0,0-3.136.285,3.115,3.115,0,0,0-1.14,3.421,1.563,1.563,0,0,0,1.71,1.14Z" transform="translate(689.431 -149.329)"/>
    <path id="Path_9" data-name="Path 9" class="cls-1" d="M47.6,21.29c0-3.991,2-6.556,5.131-7.127s5.416,1.425,5.131,4.561A10.847,10.847,0,0,1,56.437,23c-1.14,2.281-4.846,3.136-7.127,1.71A3.723,3.723,0,0,1,47.6,21.29Zm7.127-2.281c-.285-.855-.285-1.425-.855-1.71s-1.14,0-1.71,0a3.577,3.577,0,0,0-1.71,3.136c0,.57.285,1.425.57,1.425a1.75,1.75,0,0,0,1.71-.285A4.283,4.283,0,0,0,54.727,19.009Z" transform="translate(681.323 -149.387)"/>
    <path id="Path_10" data-name="Path 10" class="cls-1" d="M50.429,18.581c-.57,1.425-.855,2.851-1.425,3.991-1.14,2.566-4.561,3.421-7.127,2a3.435,3.435,0,0,1-1.425-1.425c-1.71-3.421.855-8.552,4.561-9.122C48.148,13.735,50.429,15.445,50.429,18.581Zm-2.851.285c-.285-1.425-.855-2-2.281-1.425s-1.71,1.71-2,3.136c0,.57.285,1.71.57,1.71a2.342,2.342,0,0,0,2-.285C46.723,20.861,47.008,19.721,47.578,18.866Z" transform="translate(667.092 -149.529)"/>
    <path id="Path_11" data-name="Path 11" class="cls-1" d="M35.391,17.873h2c.285-.855.285-1.71.57-2.566.285-1.14.855-1.425,1.71-1.14.855,0,1.425.57,1.14,1.71-.57,2.851-.855,5.7-1.425,8.267a1.2,1.2,0,0,1-1.71.855c-.855-.285-1.425-.57-1.14-1.71,0-.855.285-1.425.285-2.281-1.71-.57-2-.285-2.281,1.425,0,.57-.285,1.14-.285,1.71A1.2,1.2,0,0,1,32.54,25a1.455,1.455,0,0,1-1.14-1.425c.57-2.851.855-5.416,1.425-8.267.285-1.14,1.14-1.14,2-1.14a1.2,1.2,0,0,1,.855,1.71A4.227,4.227,0,0,0,35.391,17.873Z" transform="translate(651.343 -149.391)"/>
    <path id="Path_12" data-name="Path 12" class="cls-1" d="M28.276,17.806a1.047,1.047,0,0,1,.855.285c1.14,0,2,0,2,1.425s-.855,1.425-2,1.425c-.855,0-1.425,0-1.425,1.14h2a1.044,1.044,0,0,1,1.14,1.14c0,.855-.285,1.71-1.14,1.71H25.425c-1.14,0-1.425-.57-1.425-1.71.57-2.566.855-5.131,1.425-7.7.285-.855.57-1.425,1.425-1.425h3.706a1.347,1.347,0,0,1,1.425,1.425c0,.855-.285,1.425-1.425,1.425a7.892,7.892,0,0,0-2.566.285C28.276,17.236,28.276,17.521,28.276,17.806Z" transform="translate(637.648 -149.324)"/>
    <path id="Path_13" data-name="Path 13" class="cls-1" d="M63.023,17.806h1.425c.855,0,1.425.285,1.425,1.425,0,.855-.285,1.425-1.425,1.71-.855,0-2-.57-2.281,1.14h2c.855,0,1.425.285,1.425,1.14s-.285,1.71-1.425,1.71H60.172a1.441,1.441,0,0,1-1.425-2c.57-2.566.855-5.131,1.425-7.412a1.807,1.807,0,0,1,1.71-1.425H65.3c.855,0,1.425.285,1.425,1.425A1.347,1.347,0,0,1,65.3,16.951a5.557,5.557,0,0,0-2.281.285Z" transform="translate(701.818 -149.324)"/>
    <path id="Path_14" data-name="Path 14" class="cls-2" d="M28.165,11.2H6.5c3.706,6.271,7.127,12.543,10.832,19.1C20.753,23.743,24.459,17.471,28.165,11.2Z" transform="translate(605.262 -154.691)"/>
    <path id="Path_15" data-name="Path 15" class="cls-1" d="M66.754,21.447c-.285-.285-.855-.57-1.14-.855-2-1.14-2.566-2.566-2-4.276s2.851-2.566,4.561-2.281c1.425.285,2,.855,2,2.281-.285.855-.57,1.425-1.71,1.14a3.616,3.616,0,0,0-1.71-.285c0,.285,0,.285-.285.57.57.285.855.57,1.425.855a3.474,3.474,0,0,1,0,5.986,4.276,4.276,0,0,1-5.131,0,1.54,1.54,0,0,1-.57-2.281c.57-1.14,1.14-.855,2-.285C65.328,22.587,66.183,22.587,66.754,21.447Z" transform="translate(707.78 -149.544)"/>
    <path id="Path_16" data-name="Path 16" class="cls-1" d="M31.776,25.217c-2.851-.285-4.276-2-4.276-4.561,0-3.421,2-6.271,5.131-6.556a14.709,14.709,0,0,1,3.136.57c1.14.285,1.14,1.425.57,2.281-.57,1.14-1.14.57-2,.285a3.217,3.217,0,0,0-2.281.285,3.621,3.621,0,0,0-1.14,2,2.342,2.342,0,0,0,.285,2c.57.285,1.425,0,2.281,0H35.2c0,.855,0,2-.57,2.281A4.555,4.555,0,0,1,31.776,25.217Z" transform="translate(644.126 -149.324)"/>
    <path id="Path_17" data-name="Path 17" class="cls-1" d="M22.929,16.951c-.57,0-1.14,0-1.14-.285-.57-.285-.855-.855-1.14-1.14-.285-.855.285-1.425,1.14-1.425H28.06c.855,0,1.14.57,1.14,1.425s-.285,1.425-1.14,1.425c-1.71-.285-2,.855-2,2-.285,1.425-.57,3.136-.855,4.561-.285,1.14-.855,1.425-1.71,1.425-1.14-.285-1.425-.855-1.14-1.71C22.073,21.227,22.644,19.231,22.929,16.951Z" transform="translate(631.308 -149.324)"/>
    <path id="Path_18" data-name="Path 18" class="cls-1" d="M47.7,21.9h1.71a1.347,1.347,0,0,1,1.425,1.425c0,.855-.285,1.71-1.14,1.71H45.707c-1.14,0-1.425-.855-1.14-1.71.57-2.566.855-5.416,1.425-7.982.285-1.14.855-1.14,1.71-1.14s1.14.57,1.14,1.425C48.558,17.336,47.988,19.616,47.7,21.9Z" transform="translate(675.52 -149.139)"/>
    <path id="Path_19" data-name="Path 19" class="cls-1" d="M60.909,15.425c-.57,3.136-1.14,5.986-1.71,8.837a1.2,1.2,0,0,1-1.71.855c-.855-.285-1.425-.57-1.14-1.71.57-2.851.855-5.416,1.425-8.267A1.461,1.461,0,0,1,59.484,14Z" transform="translate(697.376 -149.509)"/>
    <path id="Path_20" data-name="Path 20" class="cls-3" d="M42.269,6.085C39.988,10.076,37.993,13.5,35.712,17.2c-.285.285-.855.855-1.14.855H11.2A6.231,6.231,0,0,1,9.771,17.2C7.776,13.5,5.5,10.076,3.5,6.37V5.8C16.328,6.085,29.156,6.085,42.269,6.085Z" transform="translate(599.71 -164.685)"/>
  </g>
</svg>
